<svg id="DE" xmlns="http://www.w3.org/2000/svg" viewBox="0 0 240 95"><defs><style>.cls-1{fill:#fff;}.cls-2{fill:red;}</style></defs><title>Artboard 1</title><polygon class="cls-1" points="126.17 62.44 128.15 53.12 14.98 53.12 13 62.44 126.17 62.44"/><polygon points="43.88 36.77 39.67 36.77 35.48 56.23 39.7 56.23 43.88 36.77"/><polygon points="58.63 36.77 46.86 36.77 42.7 56.23 54.6 56.23 55.36 52.7 47.67 52.7 48.71 47.86 55.38 47.86 56.14 44.36 49.47 44.36 50.34 40.3 57.87 40.3 58.63 36.77"/><path d="M29.34,36.9a22,22,0,0,0-2.54-.13H21.49L17.34,56.23h7a15.93,15.93,0,0,0,2-.1c5.49-.68,8.16-4.66,8.94-8.71C36.35,41.77,34.36,37.64,29.34,36.9ZM31,46.85c-.5,2.3-1.88,5.1-4.92,5.7a10.24,10.24,0,0,1-1.7.13h-2L25,40.39h1.8a10,10,0,0,1,1.52.1C31.08,41,31.65,43.79,31,46.85Z"/><polygon points="128.55 36.77 113.8 36.77 113.02 40.38 118.3 40.38 114.9 56.23 119.11 56.23 122.51 40.38 127.77 40.38 128.55 36.77"/><path d="M90.22,36.57c-6.75,0-9.31,4.58-10.39,9.94s1.18,9.94,7.32,9.94c6.75,0,9.31-4.58,10.38-9.94S96.36,36.57,90.22,36.57Zm2.89,10c-.68,3.14-2,6.41-5.52,6.41s-3.9-3.22-3.19-6.41,2-6.4,5.52-6.4S93.81,43.34,93.1,46.53Z"/><path d="M99.68,42.5c0,2.3,1.41,3.43,2.74,4.45l2.22,1.65a7.62,7.62,0,0,1,1.18,1,1.58,1.58,0,0,1,.52,1.12,1.66,1.66,0,0,1-.81,1.46,6.09,6.09,0,0,1-3.11.58A14.86,14.86,0,0,1,98.24,52L97,55.6a19.29,19.29,0,0,0,5.7.78,12.11,12.11,0,0,0,4.92-.84,5.16,5.16,0,0,0,3.45-4.89,4.41,4.41,0,0,0-1-2.85A11.88,11.88,0,0,0,108,45.9l-2-1.52c-1-.76-1.78-1.33-1.78-2.22a1.71,1.71,0,0,1,1.65-1.7,18.26,18.26,0,0,1,2.25-.08h3.19l.79-3.61h-3.56a32.77,32.77,0,0,0-3.5.13,5.64,5.64,0,0,0-5.31,5.6"/><path d="M74.05,36.9a13.19,13.19,0,0,0-1.91-.13H66.84L62.65,56.23h4.18l1.28-5.93h2.43a9.89,9.89,0,0,0,2.93-.37,7.73,7.73,0,0,0,5.38-6.09C79.52,40.2,77.69,37.51,74.05,36.9Zm.63,6.72a3.51,3.51,0,0,1-2.77,3,7.62,7.62,0,0,1-1.33.13h-1.7l1.36-6.35h1.83a3.91,3.91,0,0,1,1.23.16C74.34,40.85,75,41.87,74.68,43.62Z"/><path class="cls-2" d="M148.26,36.76,150.76,25H135s-3.28,15.34-3.3,15.4h3.91l2.52-11.76h8L143.55,40.4H155.4l-1.57,7.35H142l-2.36,11h-8.93L130,62.44h12.85l2.37-11h11.75l3.14-14.66Z"/></svg>